<?xml version="1.0" encoding="UTF-8" standalone="no"?>
<!-- Created with Inkscape (http://www.inkscape.org/) -->

<svg
   width="210mm"
   height="297mm"
   viewBox="0 0 210 297"
   version="1.1"
   id="svg1"
   inkscape:version="1.3.2 (091e20e, 2023-11-25, custom)"
   sodipodi:docname="utoss_logo.svg"
   xmlns:inkscape="http://www.inkscape.org/namespaces/inkscape"
   xmlns:sodipodi="http://sodipodi.sourceforge.net/DTD/sodipodi-0.dtd"
   xmlns="http://www.w3.org/2000/svg"
   xmlns:svg="http://www.w3.org/2000/svg">
  <sodipodi:namedview
     id="namedview1"
     pagecolor="#ffffff"
     bordercolor="#666666"
     borderopacity="1.0"
     inkscape:showpageshadow="2"
     inkscape:pageopacity="0.0"
     inkscape:pagecheckerboard="0"
     inkscape:deskcolor="#d1d1d1"
     inkscape:document-units="mm"
     inkscape:zoom="0.77058782"
     inkscape:cx="397.09945"
     inkscape:cy="561.25984"
     inkscape:window-width="1920"
     inkscape:window-height="1121"
     inkscape:window-x="-9"
     inkscape:window-y="-9"
     inkscape:window-maximized="1"
     inkscape:current-layer="layer1" />
  <defs
     id="defs1" />
  <g
     inkscape:label="Layer 1"
     inkscape:groupmode="layer"
     id="layer1">
    <path
       style="fill:#000000;stroke-width:0.264583"
       d="m 110.57404,176.94826 c -6.5926,-0.44797 -13.805826,-3.83794 -20.112006,-9.45196 -0.60432,-0.53798 -1.09875,-1.00923 -1.09875,-1.04722 0,-0.0982 8.09983,-8.5929 8.19344,-8.5929 0.0425,0 0.52141,0.38868 1.06416,0.86373 4.005546,3.50594 8.539666,5.79722 12.348016,6.23997 2.69423,0.31322 5.09784,-0.48634 7.16797,-2.38441 1.28428,-1.17753 2.33199,-2.79529 2.68511,-4.14603 0.29851,-1.14183 0.15442,-2.81615 -0.37839,-4.3972 -0.96893,-2.87513 -3.92868,-7.1083 -7.60389,-10.87539 l -0.65992,-0.67642 0.34366,-0.39424 c 0.18901,-0.21684 2.05022,-2.18627 4.13602,-4.37652 l 3.79236,-3.98227 0.6008,0.64321 c 3.48135,3.72705 5.45982,6.14787 7.22907,8.84529 4.67756,7.13151 5.86668,13.89563 3.53846,20.12794 -1.45322,3.89007 -4.58128,7.72285 -8.38947,10.27954 -3.65845,2.45617 -8.23256,3.63908 -12.85664,3.32488 z M 85.923695,160.49671 c -0.96256,-0.20748 -1.80791,-0.6835 -2.5606,-1.4419 -0.76361,-0.7694 -1.1566,-1.44983 -1.41031,-2.44182 -0.31237,-1.22135 -0.17298,-2.45699 0.41194,-3.65161 0.40367,-0.82444 1.40253,-1.85395 2.20837,-2.27613 2.09736,-1.09882 4.545819,-0.7258 6.204269,0.94521 0.7636,0.7694 1.1566,1.44983 1.4103,2.44183 0.31237,1.22135 0.17298,2.45698 -0.41194,3.6516 -0.40367,0.82444 -1.40252,1.85395 -2.20836,2.27614 -1.11042,0.58175 -2.420509,0.76034 -3.643669,0.49668 z m 9.509089,-12.41226 c -7.73966,-8.20343 -11.377189,-14.34831 -12.383779,-20.91994 -0.20605,-1.34517 -0.20549,-4.15491 0.001,-5.46505 0.64964,-4.12034 2.48751,-7.66547 5.640309,-10.87979 3.62502,-3.69576 7.67803,-5.9643 12.182266,-6.81864 1.22771,-0.23286 4.25013,-0.32406 5.61131,-0.16931 5.07474,0.57693 10.02179,2.97069 15.11438,7.31349 1.16486,0.99336 3.86159,3.65294 5.13645,5.0657 l 1.01884,1.12903 -0.26634,0.28208 c -3.14461,3.33043 -7.99841,8.39596 -8.04502,8.39596 -0.034,0 -0.45204,-0.4564 -0.92902,-1.01423 -1.22671,-1.43463 -4.23341,-4.41136 -5.38158,-5.32794 -2.04545,-1.63288 -4.40696,-2.99847 -6.08931,-3.52128 -2.2409,-0.69638 -4.32398,-0.56736 -6.21942,0.38519 -2.318816,1.16533 -4.586216,3.35488 -5.415126,5.22919 -0.41058,0.92838 -0.52476,1.52565 -0.51728,2.70567 0.006,0.92762 0.0491,1.26325 0.27246,2.11667 0.94885,3.62509 3.55813,7.47781 8.958286,13.22731 l 1.11655,1.18878 -0.60291,0.61921 c -0.3316,0.34056 -2.17988,2.27616 -4.1073,4.30133 -1.927406,2.02516 -3.538396,3.68211 -3.579956,3.68211 -0.0416,0 -0.72327,-0.68649 -1.51488,-1.52554 z M 129.66814,133.6856 c -0.96257,-0.20748 -1.80792,-0.68351 -2.56061,-1.44191 -0.76361,-0.76939 -1.1566,-1.44982 -1.41031,-2.44181 -0.31237,-1.22135 -0.17297,-2.45699 0.41194,-3.65161 0.40367,-0.82444 1.40253,-1.85395 2.20837,-2.27613 2.09736,-1.09882 4.54583,-0.7258 6.20427,0.94521 0.7636,0.7694 1.1566,1.44983 1.41031,2.44182 0.31237,1.22135 0.17297,2.45699 -0.41194,3.6516 -0.40368,0.82445 -1.40253,1.85396 -2.20837,2.27614 -1.11042,0.58176 -2.4205,0.76034 -3.64366,0.49669 z"
       id="path1-7" />
  </g>
</svg>
