999
"DXF R12 Output" (www.mydxf.blogspot.com)
 0 
SECTION
 2 
HEADER
 9 
$ACADVER
 1 
AC1009
 9 
$EXTMIN
 10 
 0 
 20 
 0 
 9 
$EXTMAX
 10 
 8.5 
 20 
 11 
 0 
ENDSEC
 0 
SECTION
 2 
ENTITIES
0
LINE
8
Layer 1
10
110.574040
20
120.051740
11
108.075707
21
120.356233
0
LINE
8
Layer 1
10
108.075707
20
120.356233
11
105.537092
21
120.928125
0
LINE
8
Layer 1
10
105.537092
20
120.928125
11
102.976099
21
121.759002
0
LINE
8
Layer 1
10
102.976099
20
121.759002
11
100.410629
21
122.840451
0
LINE
8
Layer 1
10
100.410629
20
122.840451
11
97.858586
21
124.164059
0
LINE
8
Layer 1
10
97.858586
20
124.164059
11
95.337870
21
125.721412
0
LINE
8
Layer 1
10
95.337870
20
125.721412
11
92.866386
21
127.504097
0
LINE
8
Layer 1
10
92.866386
20
127.504097
11
90.462034
21
129.503700
0
LINE
8
Layer 1
10
90.462034
20
129.503700
11
89.363284
21
130.550920
0
LINE
8
Layer 1
10
89.363284
20
130.550920
11
97.556724
21
139.143820
0
LINE
8
Layer 1
10
97.556724
20
139.143820
11
98.620884
21
138.280090
0
LINE
8
Layer 1
10
98.620884
20
138.280090
11
101.704552
21
135.888288
0
LINE
8
Layer 1
10
101.704552
20
135.888288
11
104.868840
21
134.011409
0
LINE
8
Layer 1
10
104.868840
20
134.011409
11
107.996155
21
132.708878
0
LINE
8
Layer 1
10
107.996155
20
132.708878
11
109.509198
21
132.291563
0
LINE
8
Layer 1
10
109.509198
20
132.291563
11
110.968900
21
132.040120
0
LINE
8
Layer 1
10
110.968900
20
132.040120
11
112.934412
21
132.013628
0
LINE
8
Layer 1
10
112.934412
20
132.013628
11
114.786923
21
132.403091
0
LINE
8
Layer 1
10
114.786923
20
132.403091
11
116.522415
21
133.207171
0
LINE
8
Layer 1
10
116.522415
20
133.207171
11
118.136870
21
134.424530
0
LINE
8
Layer 1
10
118.136870
20
134.424530
11
119.048567
21
135.379170
0
LINE
8
Layer 1
10
119.048567
20
135.379170
11
119.828610
21
136.432591
0
LINE
8
Layer 1
10
119.828610
20
136.432591
11
120.434061
21
137.518490
0
LINE
8
Layer 1
10
120.434061
20
137.518490
11
120.821980
21
138.570560
0
LINE
8
Layer 1
10
120.821980
20
138.570560
11
120.963717
21
139.516997
0
LINE
8
Layer 1
10
120.963717
20
139.516997
11
120.944530
21
140.604453
0
LINE
8
Layer 1
10
120.944530
20
140.604453
11
120.443590
21
142.967760
0
LINE
8
Layer 1
10
120.443590
20
142.967760
11
119.363541
21
145.350238
0
LINE
8
Layer 1
10
119.363541
20
145.350238
11
117.656500
21
148.070970
0
LINE
8
Layer 1
10
117.656500
20
148.070970
11
115.442031
21
150.958944
0
LINE
8
Layer 1
10
115.442031
20
150.958944
11
112.839700
21
153.843150
0
LINE
8
Layer 1
10
112.839700
20
153.843150
11
112.179780
21
154.519570
0
LINE
8
Layer 1
10
112.179780
20
154.519570
11
112.523440
21
154.913810
0
LINE
8
Layer 1
10
112.523440
20
154.913810
11
116.659460
21
159.290330
0
LINE
8
Layer 1
10
116.659460
20
159.290330
11
120.451820
21
163.272600
0
LINE
8
Layer 1
10
120.451820
20
163.272600
11
121.052620
21
162.629390
0
LINE
8
Layer 1
10
121.052620
20
162.629390
11
125.309193
21
157.820634
0
LINE
8
Layer 1
10
125.309193
20
157.820634
11
128.281690
21
153.784100
0
LINE
8
Layer 1
10
128.281690
20
153.784100
11
129.872198
21
151.127326
0
LINE
8
Layer 1
10
129.872198
20
151.127326
11
131.135326
21
148.506922
0
LINE
8
Layer 1
10
131.135326
20
148.506922
11
132.070735
21
145.924814
0
LINE
8
Layer 1
10
132.070735
20
145.924814
11
132.678088
21
143.382930
0
LINE
8
Layer 1
10
132.678088
20
143.382930
11
132.957044
21
140.883196
0
LINE
8
Layer 1
10
132.957044
20
140.883196
11
132.907265
21
138.427538
0
LINE
8
Layer 1
10
132.907265
20
138.427538
11
132.528414
21
136.017884
0
LINE
8
Layer 1
10
132.528414
20
136.017884
11
131.820150
21
133.656160
0
LINE
8
Layer 1
10
131.820150
20
133.656160
11
130.431745
21
130.768393
0
LINE
8
Layer 1
10
130.431745
20
130.768393
11
128.508529
21
128.016372
0
LINE
8
Layer 1
10
128.508529
20
128.016372
11
126.143756
21
125.514361
0
LINE
8
Layer 1
10
126.143756
20
125.514361
11
123.430680
21
123.376620
0
LINE
8
Layer 1
10
123.430680
20
123.376620
11
120.528683
21
121.776726
0
LINE
8
Layer 1
10
120.528683
20
121.776726
11
117.364471
21
120.675291
0
LINE
8
Layer 1
10
117.364471
20
120.675291
11
114.019204
21
120.093300
0
LINE
8
Layer 1
10
114.019204
20
120.093300
11
110.574040
21
120.051740
0
LINE
8
Layer 1
10
110.574040
20
120.051740
11
110.574040
21
120.051740
0
LINE
8
Layer 1
10
85.923695
20
136.503290
11
84.564694
21
137.017645
0
LINE
8
Layer 1
10
84.564694
20
137.017645
11
83.363095
21
137.945190
0
LINE
8
Layer 1
10
83.363095
20
137.945190
11
82.466728
21
139.082629
0
LINE
8
Layer 1
10
82.466728
20
139.082629
11
81.952785
21
140.387010
0
LINE
8
Layer 1
10
81.952785
20
140.387010
11
81.803115
21
141.304838
0
LINE
8
Layer 1
10
81.803115
20
141.304838
11
81.822271
21
142.222839
0
LINE
8
Layer 1
10
81.822271
20
142.222839
11
82.009669
21
143.135828
0
LINE
8
Layer 1
10
82.009669
20
143.135828
11
82.364725
21
144.038620
0
LINE
8
Layer 1
10
82.364725
20
144.038620
11
83.318096
21
145.327533
0
LINE
8
Layer 1
10
83.318096
20
145.327533
11
84.573095
21
146.314750
0
LINE
8
Layer 1
10
84.573095
20
146.314750
11
86.194116
21
146.865611
0
LINE
8
Layer 1
10
86.194116
20
146.865611
11
87.839821
21
146.880831
0
LINE
8
Layer 1
10
87.839821
20
146.880831
11
89.403230
21
146.376708
0
LINE
8
Layer 1
10
89.403230
20
146.376708
11
90.777364
21
145.369540
0
LINE
8
Layer 1
10
90.777364
20
145.369540
11
91.673727
21
144.232100
0
LINE
8
Layer 1
10
91.673727
20
144.232100
11
92.187664
21
142.927710
0
LINE
8
Layer 1
10
92.187664
20
142.927710
11
92.337334
21
142.009884
0
LINE
8
Layer 1
10
92.337334
20
142.009884
11
92.318178
21
141.091886
0
LINE
8
Layer 1
10
92.318178
20
141.091886
11
92.130780
21
140.178900
0
LINE
8
Layer 1
10
92.130780
20
140.178900
11
91.775724
21
139.276110
0
LINE
8
Layer 1
10
91.775724
20
139.276110
11
90.822358
21
137.987196
0
LINE
8
Layer 1
10
90.822358
20
137.987196
11
89.567364
21
136.999970
0
LINE
8
Layer 1
10
89.567364
20
136.999970
11
88.701589
21
136.639861
0
LINE
8
Layer 1
10
88.701589
20
136.639861
11
87.787807
21
136.434601
0
LINE
8
Layer 1
10
87.787807
20
136.434601
11
86.852886
21
136.387856
0
LINE
8
Layer 1
10
86.852886
20
136.387856
11
85.923695
21
136.503290
0
LINE
8
Layer 1
10
85.923695
20
136.503290
11
85.923695
21
136.503290
0
LINE
8
Layer 1
10
95.432784
20
148.915550
11
92.719825
21
151.900196
0
LINE
8
Layer 1
10
92.719825
20
151.900196
11
90.374201
21
154.720977
0
LINE
8
Layer 1
10
90.374201
20
154.720977
11
88.378671
21
157.407019
0
LINE
8
Layer 1
10
88.378671
20
157.407019
11
86.715993
21
159.987445
0
LINE
8
Layer 1
10
86.715993
20
159.987445
11
85.368929
21
162.491381
0
LINE
8
Layer 1
10
85.368929
20
162.491381
11
84.320236
21
164.947950
0
LINE
8
Layer 1
10
84.320236
20
164.947950
11
83.552675
21
167.386279
0
LINE
8
Layer 1
10
83.552675
20
167.386279
11
83.049005
21
169.835490
0
LINE
8
Layer 1
10
83.049005
20
169.835490
11
82.894802
21
172.581151
0
LINE
8
Layer 1
10
82.894802
20
172.581151
11
83.050005
21
175.300540
0
LINE
8
Layer 1
10
83.050005
20
175.300540
11
83.762008
21
178.286762
0
LINE
8
Layer 1
10
83.762008
20
178.286762
11
84.931475
21
181.080193
0
LINE
8
Layer 1
10
84.931475
20
181.080193
11
86.570284
21
183.703744
0
LINE
8
Layer 1
10
86.570284
20
183.703744
11
88.690314
21
186.180330
0
LINE
8
Layer 1
10
88.690314
20
186.180330
11
91.489690
21
188.684750
0
LINE
8
Layer 1
10
91.489690
20
188.684750
11
94.451741
21
190.655182
0
LINE
8
Layer 1
10
94.451741
20
190.655182
11
97.578645
21
192.092849
0
LINE
8
Layer 1
10
97.578645
20
192.092849
11
100.872580
21
192.998970
0
LINE
8
Layer 1
10
100.872580
20
192.998970
11
103.628184
21
193.228979
0
LINE
8
Layer 1
10
103.628184
20
193.228979
11
106.483890
21
193.168280
0
LINE
8
Layer 1
10
106.483890
20
193.168280
11
108.381466
21
192.866509
0
LINE
8
Layer 1
10
108.381466
20
192.866509
11
110.270272
21
192.392861
0
LINE
8
Layer 1
10
110.270272
20
192.392861
11
112.153512
21
191.745787
0
LINE
8
Layer 1
10
112.153512
20
191.745787
11
114.034386
21
190.923736
0
LINE
8
Layer 1
10
114.034386
20
190.923736
11
115.916097
21
189.925161
0
LINE
8
Layer 1
10
115.916097
20
189.925161
11
117.801847
21
188.748511
0
LINE
8
Layer 1
10
117.801847
20
188.748511
11
121.598270
21
185.854790
0
LINE
8
Layer 1
10
121.598270
20
185.854790
11
124.125245
21
183.479215
0
LINE
8
Layer 1
10
124.125245
20
183.479215
11
126.734720
21
180.789090
0
LINE
8
Layer 1
10
126.734720
20
180.789090
11
127.753560
21
179.660060
0
LINE
8
Layer 1
10
127.753560
20
179.660060
11
127.487220
21
179.377980
0
LINE
8
Layer 1
10
127.487220
20
179.377980
11
119.442200
21
170.982020
0
LINE
8
Layer 1
10
119.442200
20
170.982020
11
118.513180
21
171.996250
0
LINE
8
Layer 1
10
118.513180
20
171.996250
11
115.792938
21
174.854489
0
LINE
8
Layer 1
10
115.792938
20
174.854489
11
113.131600
21
177.324190
0
LINE
8
Layer 1
10
113.131600
20
177.324190
11
109.950783
21
179.501106
0
LINE
8
Layer 1
10
109.950783
20
179.501106
11
108.415845
21
180.304333
0
LINE
8
Layer 1
10
108.415845
20
180.304333
11
107.042290
21
180.845470
0
LINE
8
Layer 1
10
107.042290
20
180.845470
11
105.391672
21
181.213022
0
LINE
8
Layer 1
10
105.391672
20
181.213022
11
103.803033
21
181.271224
0
LINE
8
Layer 1
10
103.803033
20
181.271224
11
102.279167
21
181.020251
0
LINE
8
Layer 1
10
102.279167
20
181.020251
11
100.822870
21
180.460280
0
LINE
8
Layer 1
10
100.822870
20
180.460280
11
99.115072
21
179.415170
0
LINE
8
Layer 1
10
99.115072
20
179.415170
11
97.556592
21
178.111553
0
LINE
8
Layer 1
10
97.556592
20
178.111553
11
96.277470
21
176.675001
0
LINE
8
Layer 1
10
96.277470
20
176.675001
11
95.407744
21
175.231090
0
LINE
8
Layer 1
10
95.407744
20
175.231090
11
94.992332
21
173.972620
0
LINE
8
Layer 1
10
94.992332
20
173.972620
11
94.890464
21
172.525420
0
LINE
8
Layer 1
10
94.890464
20
172.525420
11
94.945184
21
171.439260
0
LINE
8
Layer 1
10
94.945184
20
171.439260
11
95.162924
21
170.408750
0
LINE
8
Layer 1
10
95.162924
20
170.408750
11
96.203555
21
167.621171
0
LINE
8
Layer 1
10
96.203555
20
167.621171
11
97.972827
21
164.591749
0
LINE
8
Layer 1
10
97.972827
20
164.591749
11
100.576719
21
161.163999
0
LINE
8
Layer 1
10
100.576719
20
161.163999
11
104.121210
21
157.181440
0
LINE
8
Layer 1
10
104.121210
20
157.181440
11
105.237760
21
155.992660
0
LINE
8
Layer 1
10
105.237760
20
155.992660
11
104.634850
21
155.373450
0
LINE
8
Layer 1
10
104.634850
20
155.373450
11
100.527550
21
151.072120
0
LINE
8
Layer 1
10
100.527550
20
151.072120
11
96.947594
21
147.390010
0
LINE
8
Layer 1
10
96.947594
20
147.390010
11
95.432714
21
148.915550
0
LINE
8
Layer 1
10
95.432714
20
148.915550
11
95.432784
21
148.915550
0
LINE
8
Layer 1
10
129.668140
20
163.314400
11
128.309130
21
163.828760
0
LINE
8
Layer 1
10
128.309130
20
163.828760
11
127.107530
21
164.756310
0
LINE
8
Layer 1
10
127.107530
20
164.756310
11
126.211163
21
165.893740
0
LINE
8
Layer 1
10
126.211163
20
165.893740
11
125.697220
21
167.198120
0
LINE
8
Layer 1
10
125.697220
20
167.198120
11
125.547552
21
168.115948
0
LINE
8
Layer 1
10
125.547552
20
168.115948
11
125.566710
21
169.033949
0
LINE
8
Layer 1
10
125.566710
20
169.033949
11
125.754108
21
169.946938
0
LINE
8
Layer 1
10
125.754108
20
169.946938
11
126.109160
21
170.849730
0
LINE
8
Layer 1
10
126.109160
20
170.849730
11
127.062531
21
172.138643
0
LINE
8
Layer 1
10
127.062531
20
172.138643
11
128.317530
21
173.125860
0
LINE
8
Layer 1
10
128.317530
20
173.125860
11
129.938553
21
173.676721
0
LINE
8
Layer 1
10
129.938553
20
173.676721
11
131.584260
21
173.691941
0
LINE
8
Layer 1
10
131.584260
20
173.691941
11
133.147670
21
173.187818
0
LINE
8
Layer 1
10
133.147670
20
173.187818
11
134.521800
21
172.180650
0
LINE
8
Layer 1
10
134.521800
20
172.180650
11
135.418164
21
171.043211
0
LINE
8
Layer 1
10
135.418164
20
171.043211
11
135.932110
21
169.738830
0
LINE
8
Layer 1
10
135.932110
20
169.738830
11
136.081778
21
168.821002
0
LINE
8
Layer 1
10
136.081778
20
168.821002
11
136.062620
21
167.903003
0
LINE
8
Layer 1
10
136.062620
20
167.903003
11
135.875222
21
166.990016
0
LINE
8
Layer 1
10
135.875222
20
166.990016
11
135.520170
21
166.087230
0
LINE
8
Layer 1
10
135.520170
20
166.087230
11
134.566795
21
164.798309
0
LINE
8
Layer 1
10
134.566795
20
164.798309
11
133.311800
21
163.811090
0
LINE
8
Layer 1
10
133.311800
20
163.811090
11
132.446027
21
163.450976
0
LINE
8
Layer 1
10
132.446027
20
163.450976
11
131.532248
21
163.245716
0
LINE
8
Layer 1
10
131.532248
20
163.245716
11
130.597330
21
163.198970
0
LINE
8
Layer 1
10
130.597330
20
163.198970
11
129.668140
21
163.314400
0
LINE
8
Layer 1
10
129.668140
20
163.314400
11
129.668140
21
163.314400
 0 
ENDSEC
 0 
EOF